<svg width="48" height="48" viewBox="0 0 48 48" fill="none" xmlns="http://www.w3.org/2000/svg">
<path d="M21.7999 4.19995L41.5979 7.02995L44.4259 26.83L26.0419 45.214C25.6669 45.5889 25.1583 45.7995 24.6279 45.7995C24.0976 45.7995 23.589 45.5889 23.2139 45.214L3.41394 25.414C3.039 25.0389 2.82837 24.5303 2.82837 24C2.82837 23.4696 3.039 22.961 3.41394 22.586L21.7999 4.19995ZM23.2139 8.44395L7.65594 24L24.6279 40.97L40.1839 25.414L38.0639 10.564L23.2139 8.44395ZM27.4539 21.172C26.7036 20.4214 26.2822 19.4035 26.2824 18.3422C26.2825 17.8168 26.3861 17.2964 26.5873 16.811C26.7885 16.3255 27.0833 15.8845 27.4549 15.513C27.8266 15.1414 28.2678 14.8468 28.7533 14.6458C29.2388 14.4448 29.7592 14.3413 30.2847 14.3414C31.3459 14.3416 32.3636 14.7634 33.1139 15.514C33.8642 16.2645 34.2856 17.2824 34.2855 18.3437C34.2853 19.4049 33.8635 20.4227 33.1129 21.173C32.3624 21.9232 31.3445 22.3447 30.2832 22.3445C29.222 22.3443 28.2042 21.9225 27.4539 21.172Z" fill="#1C293B"/>
</svg>
