<svg width="170" height="49" viewBox="0 0 170 49" fill="none" xmlns="http://www.w3.org/2000/svg">
<g clip-path="url(#clip0_41_29)">
<path d="M163.333 49H6.28205C2.82849 49 0 46.2422 0 42.875V6.125C0 2.75778 2.82849 0 6.28205 0H163.333C166.787 0 169.615 2.75778 169.615 6.125V42.875C169.615 46.2422 166.787 49 163.333 49Z" fill="#E0E0E0"/>
<path d="M163.333 0.981531C166.242 0.981531 168.609 3.28913 168.609 6.125V42.875C168.609 45.7109 166.242 48.0185 163.333 48.0185H6.28205C3.37346 48.0185 1.0067 45.7109 1.0067 42.875V6.125C1.0067 3.28913 3.37346 0.981531 6.28205 0.981531H163.333ZM163.333 0H6.28205C2.82849 0 0 2.75778 0 6.125V42.875C0 46.2422 2.82849 49 6.28205 49H163.333C166.787 49 169.615 46.2422 169.615 42.875V6.125C169.615 2.75778 166.787 0 163.333 0Z" fill="#828282"/>
<path d="M12.0857 10.9574C12.0857 10.5013 12.1726 10.1498 12.3073 9.89083L27.2969 24.4999L12.3052 39.1109C12.1717 38.8523 12.0857 38.5021 12.0857 38.0483V10.9574Z" fill="#1C293B" stroke="#1C293B"/>
<path d="M40.9253 23.1735L40.9263 23.1741C41.715 23.6091 41.9835 24.111 41.9835 24.501C41.9835 24.8913 41.7145 25.3948 40.9256 25.8329C40.9256 25.833 40.9255 25.833 40.9255 25.833C40.9254 25.8331 40.9253 25.8331 40.9251 25.8332L34.9827 29.1238L30.2465 24.5003L34.9864 19.8788L40.9253 23.1735Z" fill="#1C293B" stroke="#1C293B"/>
<path d="M13.9063 40.6361L28.7717 26.1407L33.2479 30.505L15.482 40.3479C15.4819 40.3479 15.4819 40.348 15.4818 40.348C14.8188 40.7144 14.2911 40.7632 13.9063 40.6361Z" fill="#1C293B" stroke="#1C293B"/>
<path d="M15.4828 8.6525C15.4832 8.65271 15.4836 8.65292 15.4839 8.65313L33.2479 18.4949L28.7716 22.8593L13.9063 8.3699C14.2913 8.24224 14.8195 8.28994 15.4828 8.6525Z" fill="#1C293B" stroke="#1C293B"/>
<path d="M59.5759 12.5486C59.5759 13.5715 59.2618 14.3907 58.643 15.0017C57.9316 15.726 57.005 16.0904 55.8695 16.0904C54.7843 16.0904 53.8577 15.7199 53.0975 14.9894C52.3358 14.2483 51.9558 13.3388 51.9558 12.25C51.9558 11.1613 52.3358 10.2518 53.0975 9.51676C53.8577 8.78023 54.7843 8.40967 55.8695 8.40967C56.4098 8.40967 56.9249 8.51839 57.4165 8.72051C57.9065 8.92417 58.3054 9.19979 58.5943 9.53973L57.9379 10.1859C57.4337 9.60558 56.7474 9.31923 55.8695 9.31923C55.078 9.31923 54.3917 9.58873 53.809 10.1323C53.2326 10.6774 52.9436 11.3834 52.9436 12.25C52.9436 13.1167 53.2326 13.8288 53.809 14.3739C54.3917 14.9114 55.078 15.187 55.8695 15.187C56.7097 15.187 57.4165 14.9114 57.974 14.3678C58.3415 14.0079 58.5504 13.5118 58.6053 12.8779H55.8695V11.9928H59.5194C59.5633 12.1842 59.5759 12.3695 59.5759 12.5486Z" fill="#1C293B" stroke="#1C293B" stroke-width="0.0442262" stroke-miterlimit="10"/>
<path d="M65.3663 9.47955H61.9379V11.8071H65.0286V12.6921H61.9379V15.0196H65.3663V15.9216H60.9673V8.57764H65.3663V9.47955Z" fill="#1C293B" stroke="#1C293B" stroke-width="0.0442262" stroke-miterlimit="10"/>
<path d="M69.4529 15.9216H68.4823V9.47955H66.3794V8.57764H71.5573V9.47955H69.4529V15.9216Z" fill="#1C293B" stroke="#1C293B" stroke-width="0.0442262" stroke-miterlimit="10"/>
<path d="M75.3044 15.9216V8.57764H76.2734V15.9216H75.3044Z" fill="#1C293B" stroke="#1C293B" stroke-width="0.0442262" stroke-miterlimit="10"/>
<path d="M80.5688 15.9216H79.6061V9.47955H77.4954V8.57764H82.6796V9.47955H80.5688V15.9216Z" fill="#1C293B" stroke="#1C293B" stroke-width="0.0442262" stroke-miterlimit="10"/>
<path d="M92.4827 14.9772C91.7399 15.7199 90.8196 16.0904 89.7218 16.0904C88.6177 16.0904 87.6974 15.7199 86.9545 14.9772C86.2132 14.2361 85.8442 13.3265 85.8442 12.25C85.8442 11.1736 86.2132 10.264 86.9545 9.52289C87.6974 8.78023 88.6177 8.40967 89.7218 8.40967C90.8133 8.40967 91.7336 8.78023 92.4765 9.52901C93.224 10.2763 93.5931 11.1797 93.5931 12.25C93.5931 13.3265 93.224 14.2361 92.4827 14.9772ZM87.6723 14.3616C88.2314 14.9114 88.9114 15.187 89.7218 15.187C90.5259 15.187 91.2122 14.9114 91.765 14.3616C92.3226 13.8119 92.6052 13.106 92.6052 12.25C92.6052 11.3941 92.3226 10.6882 91.765 10.1385C91.2122 9.58873 90.5259 9.31311 89.7218 9.31311C88.9114 9.31311 88.2314 9.58873 87.6723 10.1385C87.1147 10.6882 86.832 11.3941 86.832 12.25C86.832 13.106 87.1147 13.8119 87.6723 14.3616Z" fill="#1C293B" stroke="#1C293B" stroke-width="0.0442262" stroke-miterlimit="10"/>
<path d="M94.9546 15.9216V8.57764H96.1325L99.7949 14.2892H99.8373L99.7949 12.8774V8.57764H100.764V15.9216H99.7525L95.9173 9.9282H95.8749L95.9173 11.3462V15.9216H94.9546Z" fill="#1C293B" stroke="#1C293B" stroke-width="0.0442262" stroke-miterlimit="10"/>
<mask id="path-14-inside-1_41_29" fill="white">
<path d="M85.6055 26.647C82.6545 26.647 80.2437 28.8366 80.2437 31.8578C80.2437 34.8545 82.6545 37.0671 85.6055 37.0671C88.5627 37.0671 90.9735 34.8545 90.9735 31.8578C90.9735 28.8366 88.5627 26.647 85.6055 26.647ZM85.6055 35.0152C83.9863 35.0152 82.5932 33.7121 82.5932 31.8578C82.5932 29.979 83.9863 28.6988 85.6055 28.6988C87.2247 28.6988 88.624 29.979 88.624 31.8578C88.624 33.7121 87.2247 35.0152 85.6055 35.0152ZM73.9067 26.647C70.9494 26.647 68.545 28.8366 68.545 31.8578C68.545 34.8545 70.9494 37.0671 73.9067 37.0671C76.8624 37.0671 79.2685 34.8545 79.2685 31.8578C79.2685 28.8366 76.8624 26.647 73.9067 26.647ZM73.9067 35.0152C72.286 35.0152 70.8882 33.7121 70.8882 31.8578C70.8882 29.979 72.286 28.6988 73.9067 28.6988C75.5259 28.6988 76.919 29.979 76.919 31.8578C76.919 33.7121 75.5259 35.0152 73.9067 35.0152ZM59.9857 28.244V30.4582H65.4087C65.2501 31.6955 64.826 32.605 64.1758 33.239C63.3843 34.0046 62.1514 34.8544 59.9857 34.8544C56.6484 34.8544 54.035 32.2284 54.035 28.9745C54.035 25.7205 56.6484 23.0945 59.9857 23.0945C61.7902 23.0945 63.1032 23.782 64.0722 24.6732L65.6725 23.1128C64.3172 21.8511 62.5142 20.8818 59.9857 20.8818C55.4092 20.8818 51.563 24.5124 51.563 28.9745C51.563 33.4365 55.4092 37.0671 59.9857 37.0671C62.4593 37.0671 64.3172 36.277 65.7778 34.7947C67.2745 33.3354 67.7409 31.2836 67.7409 29.6268C67.7409 29.1123 67.6969 28.6391 67.6184 28.244H59.9857ZM116.911 29.9606C116.469 28.7953 115.108 26.647 112.334 26.647C109.586 26.647 107.297 28.7585 107.297 31.8578C107.297 34.7764 109.562 37.0671 112.598 37.0671C115.053 37.0671 116.469 35.6078 117.052 34.758L115.23 33.5743C114.622 34.441 113.795 35.0152 112.598 35.0152C111.409 35.0152 110.556 34.4839 110.01 33.4365L117.157 30.5532L116.911 29.9606ZM109.623 31.6955C109.562 29.6865 111.224 28.6575 112.414 28.6575C113.347 28.6575 114.139 29.1123 114.402 29.763L109.623 31.6955ZM103.814 36.7501H106.163V21.4376H103.814V36.7501ZM99.9662 27.8076H99.8877C99.36 27.1982 98.3533 26.647 97.0781 26.647C94.4019 26.647 91.9551 28.9377 91.9551 31.8746C91.9551 34.7947 94.4019 37.0671 97.0781 37.0671C98.3533 37.0671 99.36 36.5113 99.8877 35.8834H99.9662V36.6307C99.9662 38.6229 98.8747 39.6932 97.1142 39.6932C95.6787 39.6932 94.7883 38.6826 94.4208 37.8327L92.3775 38.6642C92.9665 40.0454 94.526 41.7451 97.1142 41.7451C99.8689 41.7451 102.193 40.1648 102.193 36.3199V26.9639H99.9662V27.8076ZM97.2791 35.0152C95.6599 35.0152 94.3045 33.6938 94.3045 31.8746C94.3045 30.0387 95.6599 28.6988 97.2791 28.6988C98.8747 28.6988 100.133 30.0387 100.133 31.8746C100.133 33.6938 98.8747 35.0152 97.2791 35.0152ZM127.91 21.4376H122.291V36.7501H124.634V30.9482H127.91C130.513 30.9482 133.065 29.1123 133.065 26.1922C133.065 23.2736 130.506 21.4376 127.91 21.4376ZM127.972 28.8183H124.634V23.5676H127.972C129.721 23.5676 130.72 24.984 130.72 26.1922C130.72 27.3774 129.721 28.8183 127.972 28.8183ZM142.456 26.6179C140.763 26.6179 139.003 27.3467 138.279 28.9622L140.358 29.812C140.806 28.9622 141.629 28.6866 142.499 28.6866C143.714 28.6866 144.947 29.3986 144.966 30.6558V30.8165C144.542 30.5777 143.634 30.224 142.518 30.224C140.278 30.224 137.996 31.426 137.996 33.6693C137.996 35.7211 139.831 37.0426 141.893 37.0426C143.469 37.0426 144.339 36.349 144.886 35.542H144.966V36.7256H147.229V30.8518C147.229 28.1369 145.15 26.6179 142.456 26.6179ZM142.174 35.0091C141.407 35.0091 140.339 34.6385 140.339 33.7121C140.339 32.527 141.671 32.0722 142.824 32.0722C143.856 32.0722 144.339 32.2942 144.966 32.5867C144.782 34.0046 143.531 35.0091 142.174 35.0091ZM155.474 26.9532L152.781 33.5912H152.701L149.916 26.9532H147.389L151.573 36.2295L149.186 41.3914H151.635L158.081 26.9532H155.474ZM134.353 36.7501H136.702V21.4376H134.353V36.7501Z"/>
</mask>
<path d="M85.6055 26.647C82.6545 26.647 80.2437 28.8366 80.2437 31.8578C80.2437 34.8545 82.6545 37.0671 85.6055 37.0671C88.5627 37.0671 90.9735 34.8545 90.9735 31.8578C90.9735 28.8366 88.5627 26.647 85.6055 26.647ZM85.6055 35.0152C83.9863 35.0152 82.5932 33.7121 82.5932 31.8578C82.5932 29.979 83.9863 28.6988 85.6055 28.6988C87.2247 28.6988 88.624 29.979 88.624 31.8578C88.624 33.7121 87.2247 35.0152 85.6055 35.0152ZM73.9067 26.647C70.9494 26.647 68.545 28.8366 68.545 31.8578C68.545 34.8545 70.9494 37.0671 73.9067 37.0671C76.8624 37.0671 79.2685 34.8545 79.2685 31.8578C79.2685 28.8366 76.8624 26.647 73.9067 26.647ZM73.9067 35.0152C72.286 35.0152 70.8882 33.7121 70.8882 31.8578C70.8882 29.979 72.286 28.6988 73.9067 28.6988C75.5259 28.6988 76.919 29.979 76.919 31.8578C76.919 33.7121 75.5259 35.0152 73.9067 35.0152ZM59.9857 28.244V30.4582H65.4087C65.2501 31.6955 64.826 32.605 64.1758 33.239C63.3843 34.0046 62.1514 34.8544 59.9857 34.8544C56.6484 34.8544 54.035 32.2284 54.035 28.9745C54.035 25.7205 56.6484 23.0945 59.9857 23.0945C61.7902 23.0945 63.1032 23.782 64.0722 24.6732L65.6725 23.1128C64.3172 21.8511 62.5142 20.8818 59.9857 20.8818C55.4092 20.8818 51.563 24.5124 51.563 28.9745C51.563 33.4365 55.4092 37.0671 59.9857 37.0671C62.4593 37.0671 64.3172 36.277 65.7778 34.7947C67.2745 33.3354 67.7409 31.2836 67.7409 29.6268C67.7409 29.1123 67.6969 28.6391 67.6184 28.244H59.9857ZM116.911 29.9606C116.469 28.7953 115.108 26.647 112.334 26.647C109.586 26.647 107.297 28.7585 107.297 31.8578C107.297 34.7764 109.562 37.0671 112.598 37.0671C115.053 37.0671 116.469 35.6078 117.052 34.758L115.23 33.5743C114.622 34.441 113.795 35.0152 112.598 35.0152C111.409 35.0152 110.556 34.4839 110.01 33.4365L117.157 30.5532L116.911 29.9606ZM109.623 31.6955C109.562 29.6865 111.224 28.6575 112.414 28.6575C113.347 28.6575 114.139 29.1123 114.402 29.763L109.623 31.6955ZM103.814 36.7501H106.163V21.4376H103.814V36.7501ZM99.9662 27.8076H99.8877C99.36 27.1982 98.3533 26.647 97.0781 26.647C94.4019 26.647 91.9551 28.9377 91.9551 31.8746C91.9551 34.7947 94.4019 37.0671 97.0781 37.0671C98.3533 37.0671 99.36 36.5113 99.8877 35.8834H99.9662V36.6307C99.9662 38.6229 98.8747 39.6932 97.1142 39.6932C95.6787 39.6932 94.7883 38.6826 94.4208 37.8327L92.3775 38.6642C92.9665 40.0454 94.526 41.7451 97.1142 41.7451C99.8689 41.7451 102.193 40.1648 102.193 36.3199V26.9639H99.9662V27.8076ZM97.2791 35.0152C95.6599 35.0152 94.3045 33.6938 94.3045 31.8746C94.3045 30.0387 95.6599 28.6988 97.2791 28.6988C98.8747 28.6988 100.133 30.0387 100.133 31.8746C100.133 33.6938 98.8747 35.0152 97.2791 35.0152ZM127.91 21.4376H122.291V36.7501H124.634V30.9482H127.91C130.513 30.9482 133.065 29.1123 133.065 26.1922C133.065 23.2736 130.506 21.4376 127.91 21.4376ZM127.972 28.8183H124.634V23.5676H127.972C129.721 23.5676 130.72 24.984 130.72 26.1922C130.72 27.3774 129.721 28.8183 127.972 28.8183ZM142.456 26.6179C140.763 26.6179 139.003 27.3467 138.279 28.9622L140.358 29.812C140.806 28.9622 141.629 28.6866 142.499 28.6866C143.714 28.6866 144.947 29.3986 144.966 30.6558V30.8165C144.542 30.5777 143.634 30.224 142.518 30.224C140.278 30.224 137.996 31.426 137.996 33.6693C137.996 35.7211 139.831 37.0426 141.893 37.0426C143.469 37.0426 144.339 36.349 144.886 35.542H144.966V36.7256H147.229V30.8518C147.229 28.1369 145.15 26.6179 142.456 26.6179ZM142.174 35.0091C141.407 35.0091 140.339 34.6385 140.339 33.7121C140.339 32.527 141.671 32.0722 142.824 32.0722C143.856 32.0722 144.339 32.2942 144.966 32.5867C144.782 34.0046 143.531 35.0091 142.174 35.0091ZM155.474 26.9532L152.781 33.5912H152.701L149.916 26.9532H147.389L151.573 36.2295L149.186 41.3914H151.635L158.081 26.9532H155.474ZM134.353 36.7501H136.702V21.4376H134.353V36.7501Z" fill="#1C293B" stroke="#1C293B" stroke-width="2" mask="url(#path-14-inside-1_41_29)"/>
</g>
<defs>
<clipPath id="clip0_41_29">
<rect width="170" height="49" fill="white"/>
</clipPath>
</defs>
</svg>
