<svg width="48" height="48" viewBox="0 0 48 48" fill="none" xmlns="http://www.w3.org/2000/svg">
<path d="M40 44H8C7.46957 44 6.96086 43.7893 6.58579 43.4142C6.21071 43.0391 6 42.5304 6 42V6C6 5.46957 6.21071 4.96086 6.58579 4.58579C6.96086 4.21071 7.46957 4 8 4H40C40.5304 4 41.0391 4.21071 41.4142 4.58579C41.7893 4.96086 42 5.46957 42 6V42C42 42.5304 41.7893 43.0391 41.4142 43.4142C41.0391 43.7893 40.5304 44 40 44ZM38 40V8H10V40H38ZM14 12H22V20H14V12ZM14 24H34V28H14V24ZM14 32H34V36H14V32ZM26 14H34V18H26V14Z" fill="#1C293B"/>
</svg>
