<svg width="170" height="49" viewBox="0 0 170 49" fill="none" xmlns="http://www.w3.org/2000/svg">
<g clip-path="url(#clip0_41_3)">
<path d="M168.873 43.3493C168.873 45.9605 166.714 48.0757 164.043 48.0757H5.97891C3.30941 48.0757 1.14258 45.9605 1.14258 43.3493V5.65742C1.14258 3.04738 3.30941 0.924805 5.97891 0.924805H164.042C166.714 0.924805 168.872 3.04738 168.872 5.65742L168.873 43.3493Z" fill="#E0E0E0"/>
<path d="M163.534 0.981529C166.442 0.981529 168.809 3.28913 168.809 6.125V42.875C168.809 45.7109 166.442 48.0185 163.534 48.0185H6.48225C3.57366 48.0185 1.20689 45.7109 1.20689 42.875V6.125C1.20689 3.28913 3.57366 0.981529 6.48225 0.981529H163.534ZM163.534 0H6.48225C3.02869 0 0.200195 2.75779 0.200195 6.125V42.875C0.200195 46.2422 3.02869 49 6.48225 49H163.534C166.987 49 169.816 46.2422 169.816 42.875V6.125C169.816 2.75779 166.987 0 163.534 0Z" fill="#828282"/>
<path d="M38.0532 24.2354C38.0168 20.2872 41.3689 18.3664 41.5222 18.277C39.6238 15.5783 36.6812 15.2096 35.6472 15.1802C33.1759 14.9266 30.7786 16.622 29.5197 16.622C28.2357 16.622 26.297 15.2047 24.2076 15.2463C21.5189 15.2868 19.0036 16.8045 17.624 19.1614C14.777 23.9671 16.9003 31.0292 19.628 34.9137C20.9924 36.8161 22.5868 38.9403 24.6737 38.8656C26.7154 38.7835 27.478 37.5965 29.9419 37.5965C32.3831 37.5965 33.0992 38.8656 35.2276 38.8178C37.4188 38.7835 38.7983 36.9068 40.115 34.9872C41.6918 32.8067 42.325 30.6593 42.3502 30.549C42.2987 30.5319 38.0947 28.9676 38.0532 24.2354Z" fill="#1C293B"/>
<path d="M34.0327 12.6247C35.1308 11.2858 35.8822 9.46425 35.6736 7.61572C34.0842 7.68432 32.0966 8.6876 30.952 9.99712C29.9393 11.1511 29.0347 13.0425 29.2684 14.8212C31.0538 14.951 32.8869 13.9428 34.0327 12.6247Z" fill="#1C293B"/>
<path d="M61.8272 12.2609C61.8272 13.7027 61.3836 14.7881 60.4979 15.517C59.6774 16.1895 58.5115 16.5264 57.0013 16.5264C56.2525 16.5264 55.6117 16.4945 55.0752 16.4308V8.55283C55.775 8.44258 56.5289 8.38623 57.343 8.38623C58.7816 8.38623 59.8659 8.69126 60.5971 9.30131C61.4163 9.99098 61.8272 10.9771 61.8272 12.2609ZM60.4388 12.2964C60.4388 11.3618 60.185 10.6451 59.6774 10.1453C59.1698 9.64675 58.4286 9.39686 57.4523 9.39686C57.0377 9.39686 56.6847 9.42381 56.3919 9.48016V15.4692C56.554 15.4937 56.8505 15.5047 57.2815 15.5047C58.2891 15.5047 59.0668 15.2315 59.6146 14.6852C60.1624 14.1388 60.4388 13.3426 60.4388 12.2964Z" fill="#1C293B"/>
<path d="M69.1886 13.5201C69.1886 14.4083 68.9285 15.1359 68.4084 15.7068C67.8631 16.2935 67.1406 16.5863 66.2385 16.5863C65.3691 16.5863 64.6768 16.3058 64.1604 15.7423C63.6453 15.18 63.3877 14.4707 63.3877 13.6157C63.3877 12.7214 63.6528 11.9877 64.1856 11.418C64.7183 10.8484 65.4344 10.563 66.3365 10.563C67.206 10.563 67.9045 10.8435 68.4335 11.4058C68.936 11.9521 69.1886 12.6577 69.1886 13.5201ZM67.8229 13.5618C67.8229 13.0289 67.7048 12.572 67.4698 12.191C67.1934 11.7304 66.8001 11.5001 66.2888 11.5001C65.7598 11.5001 65.3578 11.7304 65.0814 12.191C64.8452 12.572 64.7283 13.0363 64.7283 13.5851C64.7283 14.1179 64.8464 14.5749 65.0814 14.9558C65.3666 15.4164 65.7636 15.6467 66.2762 15.6467C66.7788 15.6467 67.1733 15.4128 67.4572 14.9436C67.701 14.5553 67.8229 14.0947 67.8229 13.5618Z" fill="#1C293B"/>
<path d="M79.0588 10.6807L77.2056 16.4553H75.9995L75.2318 13.9477C75.037 13.3218 74.8787 12.6995 74.7556 12.0821H74.7317C74.6174 12.7166 74.4591 13.3377 74.2556 13.9477L73.4401 16.4553H72.2202L70.4775 10.6807H71.8307L72.5004 13.4259C72.6624 14.0751 72.7956 14.6938 72.9024 15.2793H72.9263C73.0243 14.7967 73.1864 14.1817 73.415 13.4381L74.2556 10.6819H75.3285L76.1339 13.3793C76.3286 14.0372 76.4869 14.6705 76.6088 15.2805H76.6453C76.7345 14.6864 76.8689 14.0531 77.0473 13.3793L77.766 10.6819H79.0588V10.6807Z" fill="#1C293B"/>
<path d="M85.8849 16.4551H84.5682V13.1476C84.5682 12.1284 84.1712 11.6188 83.3746 11.6188C82.9838 11.6188 82.6685 11.7584 82.4235 12.0389C82.181 12.3195 82.0579 12.6502 82.0579 13.0287V16.4538H80.7412V12.3305C80.7412 11.8233 80.7248 11.2733 80.6934 10.678H81.8506L81.9121 11.5808H81.9486C82.1019 11.3003 82.3305 11.0687 82.6308 10.8838C82.9876 10.6682 83.3872 10.5591 83.8244 10.5591C84.3772 10.5591 84.837 10.7331 85.2027 11.0822C85.6575 11.5097 85.8849 12.148 85.8849 12.9957V16.4551Z" fill="#1C293B"/>
<path d="M89.5159 16.4555H88.2004V8.03125H89.5159V16.4555Z" fill="#1C293B"/>
<path d="M97.2679 13.5201C97.2679 14.4083 97.0078 15.1359 96.4876 15.7068C95.9423 16.2935 95.2187 16.5863 94.3178 16.5863C93.4471 16.5863 92.7548 16.3058 92.2397 15.7423C91.7246 15.18 91.467 14.4707 91.467 13.6157C91.467 12.7214 91.7321 11.9877 92.2648 11.418C92.7975 10.8484 93.5137 10.563 94.4145 10.563C95.2852 10.563 95.9825 10.8435 96.5128 11.4058C97.0153 11.9521 97.2679 12.6577 97.2679 13.5201ZM95.9009 13.5618C95.9009 13.0289 95.7828 12.572 95.5478 12.191C95.2727 11.7304 94.8782 11.5001 94.3681 11.5001C93.8378 11.5001 93.4358 11.7304 93.1606 12.191C92.9244 12.572 92.8076 13.0363 92.8076 13.5851C92.8076 14.1179 92.9257 14.5749 93.1606 14.9558C93.4459 15.4164 93.8429 15.6467 94.3555 15.6467C94.8581 15.6467 95.2513 15.4128 95.5353 14.9436C95.7803 14.5553 95.9009 14.0947 95.9009 13.5618Z" fill="#1C293B"/>
<path d="M103.64 16.4552H102.458L102.36 15.7901H102.324C101.919 16.3205 101.342 16.5863 100.594 16.5863C100.035 16.5863 99.5822 16.4111 99.2418 16.0632C98.9327 15.7472 98.7781 15.354 98.7781 14.8872C98.7781 14.1816 99.0797 13.6439 99.6865 13.2715C100.292 12.8991 101.144 12.7165 102.241 12.7251V12.6173C102.241 11.8566 101.831 11.4768 101.011 11.4768C100.427 11.4768 99.9114 11.6202 99.4667 11.9044L99.199 11.0616C99.7493 10.7296 100.429 10.563 101.231 10.563C102.779 10.563 103.555 11.3592 103.555 12.9517V15.0783C103.555 15.6553 103.584 16.1147 103.64 16.4552ZM102.273 14.4707V13.5802C100.821 13.5557 100.095 13.944 100.095 14.7439C100.095 15.0453 100.178 15.2707 100.347 15.4213C100.517 15.572 100.733 15.6467 100.991 15.6467C101.28 15.6467 101.55 15.5573 101.796 15.3797C102.044 15.2008 102.196 14.9742 102.252 14.6961C102.266 14.6337 102.273 14.5577 102.273 14.4707Z" fill="#1C293B"/>
<path d="M111.122 16.4555H109.954L109.892 15.5282H109.856C109.483 16.2338 108.847 16.5866 107.954 16.5866C107.24 16.5866 106.646 16.3134 106.175 15.7671C105.704 15.2207 105.469 14.5115 105.469 13.6405C105.469 12.7058 105.724 11.9488 106.236 11.3706C106.733 10.8316 107.341 10.5621 108.064 10.5621C108.86 10.5621 109.416 10.823 109.733 11.3461H109.758V8.03125H111.076V14.8998C111.076 15.4621 111.091 15.9802 111.122 16.4555ZM109.758 14.0202V13.0574C109.758 12.8908 109.745 12.756 109.722 12.6531C109.647 12.3444 109.488 12.0847 109.245 11.8753C109 11.6658 108.705 11.5604 108.365 11.5604C107.873 11.5604 107.489 11.7503 107.206 12.1313C106.926 12.5123 106.784 12.9986 106.784 13.5927C106.784 14.1636 106.918 14.6266 107.189 14.9831C107.474 15.3628 107.858 15.5527 108.339 15.5527C108.772 15.5527 109.117 15.3947 109.38 15.0774C109.634 14.7846 109.758 14.4318 109.758 14.0202Z" fill="#1C293B"/>
<path d="M122.384 13.5201C122.384 14.4083 122.124 15.1359 121.603 15.7068C121.058 16.2935 120.337 16.5863 119.434 16.5863C118.565 16.5863 117.873 16.3058 117.355 15.7423C116.84 15.18 116.583 14.4707 116.583 13.6157C116.583 12.7214 116.848 11.9877 117.381 11.418C117.913 10.8484 118.629 10.563 119.533 10.563C120.401 10.563 121.101 10.8435 121.629 11.4058C122.131 11.9521 122.384 12.6577 122.384 13.5201ZM121.019 13.5618C121.019 13.0289 120.901 12.572 120.666 12.191C120.388 11.7304 119.996 11.5001 119.484 11.5001C118.956 11.5001 118.554 11.7304 118.276 12.191C118.04 12.572 117.923 13.0363 117.923 13.5851C117.923 14.1179 118.041 14.5749 118.276 14.9558C118.562 15.4164 118.959 15.6467 119.471 15.6467C119.974 15.6467 120.37 15.4128 120.654 14.9436C120.896 14.5553 121.019 14.0947 121.019 13.5618Z" fill="#1C293B"/>
<path d="M129.463 16.4551H128.148V13.1476C128.148 12.1284 127.751 11.6188 126.953 11.6188C126.562 11.6188 126.247 11.7584 126.003 12.0389C125.76 12.3195 125.638 12.6502 125.638 13.0287V16.4538H124.32V12.3305C124.32 11.8233 124.305 11.2733 124.273 10.678H125.429L125.491 11.5808H125.527C125.682 11.3003 125.91 11.0687 126.209 10.8838C126.567 10.6682 126.966 10.5591 127.404 10.5591C127.956 10.5591 128.416 10.7331 128.781 11.0822C129.237 11.5097 129.463 12.148 129.463 12.9957V16.4551Z" fill="#1C293B"/>
<path d="M138.325 11.642H136.875V14.4473C136.875 15.1602 137.133 15.5167 137.643 15.5167C137.879 15.5167 138.075 15.4971 138.229 15.4567L138.263 16.4305C138.003 16.5261 137.662 16.5739 137.241 16.5739C136.721 16.5739 136.316 16.4195 136.023 16.1108C135.729 15.8021 135.583 15.2827 135.583 14.5538V11.642H134.718V10.6804H135.583V9.62194L136.874 9.24219V10.6792H138.324V11.642H138.325Z" fill="#1C293B"/>
<path d="M145.296 16.4555H143.978V13.1725C143.978 12.1374 143.58 11.6192 142.785 11.6192C142.175 11.6192 141.757 11.9194 141.529 12.5196C141.49 12.6458 141.467 12.8001 141.467 12.9814V16.4543H140.152V8.03125H141.467V11.5114H141.492C141.907 10.8781 142.501 10.5621 143.271 10.5621C143.817 10.5621 144.268 10.736 144.626 11.0851C145.072 11.52 145.296 12.1668 145.296 13.0219V16.4555Z" fill="#1C293B"/>
<path d="M152.486 13.2946C152.486 13.5249 152.468 13.7184 152.437 13.8765H148.488C148.506 14.4473 148.694 14.8822 149.06 15.1835C149.394 15.453 149.825 15.5878 150.353 15.5878C150.937 15.5878 151.469 15.4971 151.949 15.3146L152.155 16.2064C151.594 16.444 150.933 16.5629 150.168 16.5629C149.251 16.5629 148.528 16.2995 148.006 15.7728C147.48 15.246 147.22 14.5392 147.22 13.6523C147.22 12.7813 147.463 12.0561 147.952 11.4779C148.462 10.8605 149.151 10.5518 150.022 10.5518C150.874 10.5518 151.521 10.8605 151.958 11.4779C152.311 11.9679 152.486 12.5743 152.486 13.2946ZM151.229 12.9626C151.24 12.5816 151.153 12.2533 150.974 11.9765C150.746 11.62 150.398 11.4412 149.927 11.4412C149.497 11.4412 149.146 11.6151 148.879 11.9642C148.66 12.2423 148.531 12.5743 148.488 12.9626H151.229Z" fill="#1C293B"/>
<path d="M67.6003 38.5923H64.747L63.184 33.8038H57.7513L56.2625 38.5923H53.4846L58.867 22.29H62.1915L67.6003 38.5923ZM62.7129 31.7948L61.2994 27.5379C61.1499 27.1031 60.8697 26.079 60.4564 24.4669H60.4061C60.2415 25.1602 59.9764 26.1843 59.6121 27.5379L58.2237 31.7948H62.7129Z" fill="#1C293B"/>
<path d="M81.4423 32.5701C81.4423 34.5693 80.8882 36.1495 79.7801 37.3096C78.7875 38.3423 77.555 38.858 76.0837 38.858C74.4956 38.858 73.3548 38.3018 72.66 37.1895H72.6097V43.3819H69.9311V30.7068C69.9311 29.45 69.8972 28.1601 69.8318 26.8371H72.1876L72.3371 28.7003H72.3874C73.2807 27.2964 74.6363 26.5957 76.4556 26.5957C77.8779 26.5957 79.0652 27.1433 80.015 28.2397C80.9674 29.3373 81.4423 30.7803 81.4423 32.5701ZM78.7134 32.6656C78.7134 31.5215 78.4495 30.5782 77.9193 29.8359C77.3401 29.0617 76.5624 28.6746 75.5874 28.6746C74.9266 28.6746 74.326 28.8902 73.7895 29.3152C73.2518 29.744 72.9 30.3038 72.7354 30.9972C72.6525 31.3206 72.611 31.5852 72.611 31.7934V33.7534C72.611 34.6085 72.8799 35.33 73.4176 35.9192C73.9554 36.5084 74.6539 36.8024 75.5133 36.8024C76.5222 36.8024 77.3075 36.4227 77.8691 35.6656C78.432 34.9074 78.7134 33.9078 78.7134 32.6656Z" fill="#1C293B"/>
<path d="M95.3092 32.5701C95.3092 34.5693 94.7551 36.1495 93.6457 37.3096C92.6544 38.3423 91.4218 38.858 89.9506 38.858C88.3625 38.858 87.2217 38.3018 86.5281 37.1895H86.4779V43.3819H83.7992V30.7068C83.7992 29.45 83.7653 28.1601 83.7 26.8371H86.0557L86.2052 28.7003H86.2555C87.1475 27.2964 88.5032 26.5957 90.3238 26.5957C91.7448 26.5957 92.9321 27.1433 93.8844 28.2397C94.833 29.3373 95.3092 30.7803 95.3092 32.5701ZM92.5803 32.6656C92.5803 31.5215 92.3152 30.5782 91.7849 29.8359C91.2057 29.0617 90.4305 28.6746 89.4543 28.6746C88.7922 28.6746 88.1929 28.8902 87.6551 29.3152C87.1174 29.744 86.7668 30.3038 86.6023 30.9972C86.5206 31.3206 86.4779 31.5852 86.4779 31.7934V33.7534C86.4779 34.6085 86.7467 35.33 87.282 35.9192C87.8197 36.5072 88.5183 36.8024 89.3802 36.8024C90.3891 36.8024 91.1743 36.4227 91.736 35.6656C92.2988 34.9074 92.5803 33.9078 92.5803 32.6656Z" fill="#1C293B"/>
<path d="M110.813 34.0207C110.813 35.4074 110.32 36.5357 109.328 37.4066C108.239 38.3585 106.722 38.8338 104.774 38.8338C102.975 38.8338 101.532 38.4957 100.44 37.8182L101.061 35.6414C102.237 36.3348 103.527 36.6827 104.933 36.6827C105.942 36.6827 106.727 36.4597 107.292 36.0163C107.853 35.5728 108.133 34.9775 108.133 34.2351C108.133 33.5736 107.902 33.0162 107.439 32.5642C106.977 32.1122 106.207 31.692 105.132 31.3037C102.204 30.2392 100.742 28.6797 100.742 26.6291C100.742 25.2889 101.255 24.1901 102.281 23.3351C103.304 22.4788 104.668 22.0513 106.374 22.0513C107.896 22.0513 109.16 22.3097 110.169 22.8255L109.499 24.9545C108.557 24.4547 107.491 24.2048 106.299 24.2048C105.357 24.2048 104.62 24.4314 104.093 24.8822C103.647 25.2853 103.423 25.7765 103.423 26.3584C103.423 27.0027 103.678 27.5356 104.191 27.9545C104.637 28.3416 105.447 28.7606 106.623 29.2126C108.062 29.7773 109.118 30.4376 109.798 31.1947C110.475 31.9493 110.813 32.8937 110.813 34.0207Z" fill="#1C293B"/>
<path d="M119.67 28.7972H116.717V34.5045C116.717 35.9561 117.237 36.6813 118.28 36.6813C118.759 36.6813 119.156 36.6409 119.47 36.56L119.544 38.5433C119.016 38.7356 118.322 38.8324 117.461 38.8324C116.403 38.8324 115.576 38.5176 114.98 37.8891C114.385 37.2595 114.086 36.2035 114.086 34.7201V28.7947H112.327V26.8347H114.086V24.6824L116.717 23.9082V26.8347H119.67V28.7972Z" fill="#1C293B"/>
<path d="M132.991 32.618C132.991 34.4249 132.461 35.9084 131.403 37.0685C130.294 38.2628 128.821 38.8582 126.986 38.8582C125.217 38.8582 123.808 38.2861 122.758 37.142C121.708 35.9978 121.182 34.5535 121.182 32.8128C121.182 30.9912 121.723 29.4992 122.807 28.3391C123.889 27.1778 125.349 26.5972 127.184 26.5972C128.953 26.5972 130.377 27.1692 131.451 28.3146C132.479 29.4257 132.991 30.8602 132.991 32.618ZM130.212 32.7026C130.212 31.6184 129.975 30.6887 129.494 29.9132C128.932 28.9749 128.129 28.5069 127.089 28.5069C126.012 28.5069 125.194 28.9761 124.633 29.9132C124.151 30.6899 123.914 31.6344 123.914 32.7516C123.914 33.8357 124.151 34.7655 124.633 35.5397C125.212 36.478 126.021 36.946 127.065 36.946C128.088 36.946 128.891 36.4682 129.47 35.5152C129.963 34.725 130.212 33.7855 130.212 32.7026Z" fill="#1C293B"/>
<path d="M141.698 29.1339C141.433 29.0862 141.151 29.0617 140.854 29.0617C139.912 29.0617 139.183 29.4083 138.67 30.1029C138.224 30.7154 138.001 31.4896 138.001 32.4243V38.5922H135.323L135.349 30.539C135.349 29.1842 135.315 27.9506 135.248 26.8383H137.581L137.679 29.0874H137.753C138.036 28.3144 138.482 27.6921 139.093 27.2254C139.689 26.8052 140.334 26.5957 141.029 26.5957C141.276 26.5957 141.5 26.6129 141.698 26.6435V29.1339Z" fill="#1C293B"/>
<path d="M153.678 32.1589C153.678 32.6269 153.647 33.0213 153.58 33.3435H145.544C145.576 34.5048 145.964 35.3929 146.71 36.0054C147.387 36.553 148.263 36.8274 149.339 36.8274C150.528 36.8274 151.614 36.6424 152.59 36.2713L153.01 38.0843C151.869 38.5694 150.522 38.8107 148.968 38.8107C147.098 38.8107 145.631 38.2741 144.563 37.2023C143.498 36.1304 142.964 34.691 142.964 32.8854C142.964 31.1128 143.46 29.6367 144.454 28.4594C145.494 27.2026 146.9 26.5742 148.669 26.5742C150.407 26.5742 151.722 27.2026 152.615 28.4594C153.323 29.4578 153.678 30.6926 153.678 32.1589ZM151.124 31.4815C151.142 30.7073 150.967 30.0385 150.604 29.4737C150.14 28.7473 149.428 28.3847 148.469 28.3847C147.593 28.3847 146.881 28.7387 146.337 29.4492C145.891 30.014 145.626 30.6914 145.544 31.4803H151.124V31.4815Z" fill="#1C293B"/>
</g>
<defs>
<clipPath id="clip0_41_3">
<rect width="170" height="49" fill="white"/>
</clipPath>
</defs>
</svg>
