<svg width="48" height="48" viewBox="0 0 48 48" fill="none" xmlns="http://www.w3.org/2000/svg">
<path d="M13 23C11.8181 23 10.6478 22.7672 9.55585 22.3149C8.46392 21.8626 7.47177 21.1997 6.63604 20.364C5.80031 19.5282 5.13738 18.5361 4.68508 17.4442C4.23279 16.3522 4 15.1819 4 14C4 12.8181 4.23279 11.6478 4.68508 10.5558C5.13738 9.46392 5.80031 8.47177 6.63604 7.63604C7.47177 6.80031 8.46392 6.13738 9.55585 5.68508C10.6478 5.23279 11.8181 5 13 5C15.3869 5 17.6761 5.94821 19.364 7.63604C21.0518 9.32387 22 11.6131 22 14C22 16.3869 21.0518 18.6761 19.364 20.364C17.6761 22.0518 15.3869 23 13 23ZM14 43C11.6131 43 9.32387 42.0518 7.63604 40.364C5.94821 38.6761 5 36.3869 5 34C5 31.6131 5.94821 29.3239 7.63604 27.636C9.32387 25.9482 11.6131 25 14 25C16.3869 25 18.6761 25.9482 20.364 27.636C22.0518 29.3239 23 31.6131 23 34C23 36.3869 22.0518 38.6761 20.364 40.364C18.6761 42.0518 16.3869 43 14 43ZM34 23C32.8181 23 31.6478 22.7672 30.5558 22.3149C29.4639 21.8626 28.4718 21.1997 27.636 20.364C26.8003 19.5282 26.1374 18.5361 25.6851 17.4442C25.2328 16.3522 25 15.1819 25 14C25 12.8181 25.2328 11.6478 25.6851 10.5558C26.1374 9.46392 26.8003 8.47177 27.636 7.63604C28.4718 6.80031 29.4639 6.13738 30.5558 5.68508C31.6478 5.23279 32.8181 5 34 5C36.3869 5 38.6761 5.94821 40.364 7.63604C42.0518 9.32387 43 11.6131 43 14C43 16.3869 42.0518 18.6761 40.364 20.364C38.6761 22.0518 36.3869 23 34 23ZM34 43C31.6131 43 29.3239 42.0518 27.636 40.364C25.9482 38.6761 25 36.3869 25 34C25 31.6131 25.9482 29.3239 27.636 27.636C29.3239 25.9482 31.6131 25 34 25C36.3869 25 38.6761 25.9482 40.364 27.636C42.0518 29.3239 43 31.6131 43 34C43 36.3869 42.0518 38.6761 40.364 40.364C38.6761 42.0518 36.3869 43 34 43ZM13 19C14.3261 19 15.5979 18.4732 16.5355 17.5355C17.4732 16.5979 18 15.3261 18 14C18 12.6739 17.4732 11.4021 16.5355 10.4645C15.5979 9.52678 14.3261 9 13 9C11.6739 9 10.4021 9.52678 9.46447 10.4645C8.52678 11.4021 8 12.6739 8 14C8 15.3261 8.52678 16.5979 9.46447 17.5355C10.4021 18.4732 11.6739 19 13 19ZM14 39C15.3261 39 16.5979 38.4732 17.5355 37.5355C18.4732 36.5979 19 35.3261 19 34C19 32.6739 18.4732 31.4021 17.5355 30.4645C16.5979 29.5268 15.3261 29 14 29C12.6739 29 11.4021 29.5268 10.4645 30.4645C9.52678 31.4021 9 32.6739 9 34C9 35.3261 9.52678 36.5979 10.4645 37.5355C11.4021 38.4732 12.6739 39 14 39ZM34 19C35.3261 19 36.5979 18.4732 37.5355 17.5355C38.4732 16.5979 39 15.3261 39 14C39 12.6739 38.4732 11.4021 37.5355 10.4645C36.5979 9.52678 35.3261 9 34 9C32.6739 9 31.4021 9.52678 30.4645 10.4645C29.5268 11.4021 29 12.6739 29 14C29 15.3261 29.5268 16.5979 30.4645 17.5355C31.4021 18.4732 32.6739 19 34 19ZM34 39C35.3261 39 36.5979 38.4732 37.5355 37.5355C38.4732 36.5979 39 35.3261 39 34C39 32.6739 38.4732 31.4021 37.5355 30.4645C36.5979 29.5268 35.3261 29 34 29C32.6739 29 31.4021 29.5268 30.4645 30.4645C29.5268 31.4021 29 32.6739 29 34C29 35.3261 29.5268 36.5979 30.4645 37.5355C31.4021 38.4732 32.6739 39 34 39Z" fill="#1C293B"/>
</svg>
